<svg xmlns="http://www.w3.org/2000/svg" viewBox="0 0 320 420"><defs><radialGradient id="g"><stop stop-color="#8f7cff"/><stop offset="1" stop-color="#101225"/></radialGradient></defs><rect width="320" height="420" rx="48" fill="#090b15"/><circle cx="160" cy="180" r="110" fill="url(#g)" opacity=".4"/><path d="M160 66c74 0 108 53 108 128 0 95-44 150-108 150S52 289 52 194C52 119 86 66 160 66z" fill="#171b31" stroke="#8f7cff" stroke-width="5"/><path d="M93 166c20-28 42-41 67-41s47 13 67 41v76c-20 33-42 49-67 49s-47-16-67-49z" fill="#0c1020"/><path d="M111 191l38 20 11-20 11 20 38-20" fill="none" stroke="#6ee7ff" stroke-width="12" stroke-linecap="round" stroke-linejoin="round"/><path d="M112 270c28 21 68 21 96 0" fill="none" stroke="#8f7cff" stroke-width="9" stroke-linecap="round"/></svg>
